<mxfile host="app.diagrams.net" modified="2023-01-16T07:59:59.022Z" agent="5.0 (Windows NT 10.0; Win64; x64) AppleWebKit/537.36 (KHTML, like Gecko) Chrome/101.0.0.0 Safari/537.36" etag="bdCkgQY2mmFNspchsOTc" version="20.2.8" type="github" pages="2">
  <diagram id="C5RBs43oDa-KdzZeNtuy" name="Entitlement Check">
    <mxGraphModel dx="1422" dy="772" grid="1" gridSize="10" guides="1" tooltips="1" connect="1" arrows="1" fold="1" page="1" pageScale="1" pageWidth="827" pageHeight="1169" math="0" shadow="0">
      <root>
        <mxCell id="WIyWlLk6GJQsqaUBKTNV-0" />
        <mxCell id="WIyWlLk6GJQsqaUBKTNV-1" parent="WIyWlLk6GJQsqaUBKTNV-0" />
        <mxCell id="IWNHtpwWEOx4_SlPFsgK-19" value="" style="edgeStyle=orthogonalEdgeStyle;rounded=0;orthogonalLoop=1;jettySize=auto;html=1;" edge="1" parent="WIyWlLk6GJQsqaUBKTNV-1" source="WIyWlLk6GJQsqaUBKTNV-3" target="WIyWlLk6GJQsqaUBKTNV-6">
          <mxGeometry relative="1" as="geometry" />
        </mxCell>
        <mxCell id="WIyWlLk6GJQsqaUBKTNV-3" value="User Logs Into Nexus Portal" style="rounded=1;whiteSpace=wrap;html=1;fontSize=12;glass=0;strokeWidth=1;shadow=0;" parent="WIyWlLk6GJQsqaUBKTNV-1" vertex="1">
          <mxGeometry x="30" y="60" width="100" height="80" as="geometry" />
        </mxCell>
        <mxCell id="XtAN2ILJXpFJlVYJVSxq-3" value="No" style="edgeStyle=orthogonalEdgeStyle;rounded=0;orthogonalLoop=1;jettySize=auto;html=1;" edge="1" parent="WIyWlLk6GJQsqaUBKTNV-1" source="WIyWlLk6GJQsqaUBKTNV-6" target="IWNHtpwWEOx4_SlPFsgK-8">
          <mxGeometry relative="1" as="geometry" />
        </mxCell>
        <mxCell id="XtAN2ILJXpFJlVYJVSxq-4" value="Yes" style="edgeStyle=orthogonalEdgeStyle;rounded=0;orthogonalLoop=1;jettySize=auto;html=1;" edge="1" parent="WIyWlLk6GJQsqaUBKTNV-1" source="WIyWlLk6GJQsqaUBKTNV-6" target="IWNHtpwWEOx4_SlPFsgK-0">
          <mxGeometry relative="1" as="geometry" />
        </mxCell>
        <mxCell id="WIyWlLk6GJQsqaUBKTNV-6" value="Check User Entitlements?" style="rhombus;whiteSpace=wrap;html=1;shadow=0;fontFamily=Helvetica;fontSize=12;align=center;strokeWidth=1;spacing=6;spacingTop=-4;" parent="WIyWlLk6GJQsqaUBKTNV-1" vertex="1">
          <mxGeometry x="203.75" y="46.25" width="132.5" height="107.5" as="geometry" />
        </mxCell>
        <mxCell id="IWNHtpwWEOx4_SlPFsgK-4" value="" style="edgeStyle=orthogonalEdgeStyle;rounded=0;orthogonalLoop=1;jettySize=auto;html=1;" edge="1" parent="WIyWlLk6GJQsqaUBKTNV-1" source="IWNHtpwWEOx4_SlPFsgK-0" target="IWNHtpwWEOx4_SlPFsgK-1">
          <mxGeometry relative="1" as="geometry" />
        </mxCell>
        <mxCell id="IWNHtpwWEOx4_SlPFsgK-0" value="From Account Dropdown User Selects My Entitlements" style="rounded=1;whiteSpace=wrap;html=1;fontSize=12;glass=0;strokeWidth=1;shadow=0;" vertex="1" parent="WIyWlLk6GJQsqaUBKTNV-1">
          <mxGeometry x="210" y="230" width="120" height="80" as="geometry" />
        </mxCell>
        <mxCell id="IWNHtpwWEOx4_SlPFsgK-5" value="" style="edgeStyle=orthogonalEdgeStyle;rounded=0;orthogonalLoop=1;jettySize=auto;html=1;" edge="1" parent="WIyWlLk6GJQsqaUBKTNV-1" source="IWNHtpwWEOx4_SlPFsgK-1" target="IWNHtpwWEOx4_SlPFsgK-2">
          <mxGeometry relative="1" as="geometry" />
        </mxCell>
        <mxCell id="IWNHtpwWEOx4_SlPFsgK-1" value="System Displays List of Entitlement for the User" style="rounded=1;whiteSpace=wrap;html=1;fontSize=12;glass=0;strokeWidth=1;shadow=0;" vertex="1" parent="WIyWlLk6GJQsqaUBKTNV-1">
          <mxGeometry x="210" y="360" width="120" height="80" as="geometry" />
        </mxCell>
        <mxCell id="IWNHtpwWEOx4_SlPFsgK-6" value="" style="edgeStyle=orthogonalEdgeStyle;rounded=0;orthogonalLoop=1;jettySize=auto;html=1;" edge="1" parent="WIyWlLk6GJQsqaUBKTNV-1" source="IWNHtpwWEOx4_SlPFsgK-2" target="IWNHtpwWEOx4_SlPFsgK-3">
          <mxGeometry relative="1" as="geometry" />
        </mxCell>
        <mxCell id="IWNHtpwWEOx4_SlPFsgK-2" value="User Review List of Entitlements" style="rounded=1;whiteSpace=wrap;html=1;fontSize=12;glass=0;strokeWidth=1;shadow=0;" vertex="1" parent="WIyWlLk6GJQsqaUBKTNV-1">
          <mxGeometry x="210" y="490" width="120" height="80" as="geometry" />
        </mxCell>
        <mxCell id="IWNHtpwWEOx4_SlPFsgK-3" value="User Reviews Permissions Associated with Each Application" style="rounded=1;whiteSpace=wrap;html=1;fontSize=12;glass=0;strokeWidth=1;shadow=0;" vertex="1" parent="WIyWlLk6GJQsqaUBKTNV-1">
          <mxGeometry x="210" y="630" width="120" height="80" as="geometry" />
        </mxCell>
        <mxCell id="IWNHtpwWEOx4_SlPFsgK-18" value="" style="edgeStyle=orthogonalEdgeStyle;rounded=0;orthogonalLoop=1;jettySize=auto;html=1;" edge="1" parent="WIyWlLk6GJQsqaUBKTNV-1" source="IWNHtpwWEOx4_SlPFsgK-8" target="IWNHtpwWEOx4_SlPFsgK-17">
          <mxGeometry relative="1" as="geometry" />
        </mxCell>
        <mxCell id="XtAN2ILJXpFJlVYJVSxq-2" value="Yes" style="edgeStyle=orthogonalEdgeStyle;rounded=0;orthogonalLoop=1;jettySize=auto;html=1;" edge="1" parent="WIyWlLk6GJQsqaUBKTNV-1" source="IWNHtpwWEOx4_SlPFsgK-8" target="IWNHtpwWEOx4_SlPFsgK-9">
          <mxGeometry relative="1" as="geometry" />
        </mxCell>
        <mxCell id="IWNHtpwWEOx4_SlPFsgK-8" value="User Launches Application?" style="rhombus;whiteSpace=wrap;html=1;shadow=0;fontFamily=Helvetica;fontSize=12;align=center;strokeWidth=1;spacing=6;spacingTop=-4;" vertex="1" parent="WIyWlLk6GJQsqaUBKTNV-1">
          <mxGeometry x="430" y="46.25" width="132.5" height="107.5" as="geometry" />
        </mxCell>
        <mxCell id="IWNHtpwWEOx4_SlPFsgK-12" value="" style="edgeStyle=orthogonalEdgeStyle;rounded=0;orthogonalLoop=1;jettySize=auto;html=1;" edge="1" parent="WIyWlLk6GJQsqaUBKTNV-1" source="IWNHtpwWEOx4_SlPFsgK-9" target="IWNHtpwWEOx4_SlPFsgK-11">
          <mxGeometry relative="1" as="geometry" />
        </mxCell>
        <mxCell id="IWNHtpwWEOx4_SlPFsgK-9" value="System checks to See If User has Access to Application" style="rounded=1;whiteSpace=wrap;html=1;fontSize=12;glass=0;strokeWidth=1;shadow=0;" vertex="1" parent="WIyWlLk6GJQsqaUBKTNV-1">
          <mxGeometry x="436.25" y="230" width="120" height="80" as="geometry" />
        </mxCell>
        <mxCell id="XtAN2ILJXpFJlVYJVSxq-0" value="No" style="edgeStyle=orthogonalEdgeStyle;rounded=0;orthogonalLoop=1;jettySize=auto;html=1;" edge="1" parent="WIyWlLk6GJQsqaUBKTNV-1" source="IWNHtpwWEOx4_SlPFsgK-11" target="IWNHtpwWEOx4_SlPFsgK-13">
          <mxGeometry relative="1" as="geometry" />
        </mxCell>
        <mxCell id="XtAN2ILJXpFJlVYJVSxq-1" value="Yes" style="edgeStyle=orthogonalEdgeStyle;rounded=0;orthogonalLoop=1;jettySize=auto;html=1;" edge="1" parent="WIyWlLk6GJQsqaUBKTNV-1" source="IWNHtpwWEOx4_SlPFsgK-11" target="IWNHtpwWEOx4_SlPFsgK-14">
          <mxGeometry relative="1" as="geometry" />
        </mxCell>
        <mxCell id="IWNHtpwWEOx4_SlPFsgK-11" value="User has Access?" style="rhombus;whiteSpace=wrap;html=1;shadow=0;fontFamily=Helvetica;fontSize=12;align=center;strokeWidth=1;spacing=6;spacingTop=-4;" vertex="1" parent="WIyWlLk6GJQsqaUBKTNV-1">
          <mxGeometry x="430" y="360" width="132.5" height="107.5" as="geometry" />
        </mxCell>
        <mxCell id="IWNHtpwWEOx4_SlPFsgK-13" value="Display Error Message" style="rounded=1;whiteSpace=wrap;html=1;fontSize=12;glass=0;strokeWidth=1;shadow=0;" vertex="1" parent="WIyWlLk6GJQsqaUBKTNV-1">
          <mxGeometry x="660" y="373.75" width="120" height="80" as="geometry" />
        </mxCell>
        <mxCell id="IWNHtpwWEOx4_SlPFsgK-14" value="System Provides Access to User" style="rounded=1;whiteSpace=wrap;html=1;fontSize=12;glass=0;strokeWidth=1;shadow=0;" vertex="1" parent="WIyWlLk6GJQsqaUBKTNV-1">
          <mxGeometry x="436.25" y="540" width="120" height="80" as="geometry" />
        </mxCell>
        <mxCell id="IWNHtpwWEOx4_SlPFsgK-17" value="User Logout" style="rounded=1;whiteSpace=wrap;html=1;fontSize=12;glass=0;strokeWidth=1;shadow=0;" vertex="1" parent="WIyWlLk6GJQsqaUBKTNV-1">
          <mxGeometry x="660" y="60" width="120" height="80" as="geometry" />
        </mxCell>
      </root>
    </mxGraphModel>
  </diagram>
  <diagram id="DYMGI4B3t5d0-QfFQbIk" name="Create Contact">
    <mxGraphModel dx="1422" dy="772" grid="1" gridSize="10" guides="1" tooltips="1" connect="1" arrows="1" fold="1" page="1" pageScale="1" pageWidth="850" pageHeight="1100" math="0" shadow="0">
      <root>
        <mxCell id="0" />
        <mxCell id="1" parent="0" />
        <mxCell id="4h4OIE0NMRHTQQAb2BvF-3" value="" style="edgeStyle=orthogonalEdgeStyle;rounded=0;orthogonalLoop=1;jettySize=auto;html=1;" edge="1" parent="1" source="4h4OIE0NMRHTQQAb2BvF-1" target="4h4OIE0NMRHTQQAb2BvF-2">
          <mxGeometry relative="1" as="geometry" />
        </mxCell>
        <mxCell id="4h4OIE0NMRHTQQAb2BvF-1" value="User Access Nexus Portal" style="rounded=1;whiteSpace=wrap;html=1;" vertex="1" parent="1">
          <mxGeometry x="50" y="60" width="120" height="70" as="geometry" />
        </mxCell>
        <mxCell id="4h4OIE0NMRHTQQAb2BvF-2" value="Has User in Nexus?" style="rhombus;whiteSpace=wrap;html=1;" vertex="1" parent="1">
          <mxGeometry x="260" y="50" width="130" height="90" as="geometry" />
        </mxCell>
      </root>
    </mxGraphModel>
  </diagram>
</mxfile>
